<svg width="25" height="24" viewBox="0 0 25 24" fill="none" xmlns="http://www.w3.org/2000/svg">
<g id="Icon">
<path id="&#244;&#128;&#180;&#191;" d="M12.9842 2.2251C12.3623 2.2251 11.8668 1.72955 11.8668 1.10769C11.8668 0.505263 12.3721 0 12.9842 0C13.5964 0 14.0919 0.495547 14.0919 1.10769C14.0919 1.73927 13.6158 2.2251 12.9842 2.2251ZM8.29109 4.92632C7.67895 4.92632 7.1834 4.43077 7.1834 3.81862C7.1834 3.20648 7.68866 2.70121 8.29109 2.70121C8.91296 2.70121 9.4085 3.19676 9.4085 3.81862C9.4085 4.4502 8.92267 4.92632 8.29109 4.92632ZM17.6676 4.92632C17.0457 4.92632 16.5599 4.43077 16.5599 3.81862C16.5599 3.20648 17.0652 2.70121 17.6676 2.70121C18.2895 2.70121 18.7753 3.19676 18.7753 3.81862C18.7753 4.4502 18.2992 4.92632 17.6676 4.92632ZM12.9842 8.03563C12.168 8.03563 11.4976 7.3749 11.4976 6.5587C11.4976 5.75223 12.1777 5.07206 12.9842 5.07206C13.8004 5.07206 14.4611 5.74251 14.4611 6.5587C14.4611 7.38462 13.8101 8.03563 12.9842 8.03563ZM3.60769 7.6664C2.98583 7.6664 2.5 7.17085 2.5 6.5587C2.5 5.94656 3.00526 5.4413 3.60769 5.4413C4.21984 5.4413 4.71538 5.93684 4.71538 6.5587C4.71538 7.19028 4.23927 7.6664 3.60769 7.6664ZM22.3219 7.6664C21.7 7.6664 21.2045 7.17085 21.2045 6.5587C21.2045 5.94656 21.7097 5.4413 22.3219 5.4413C22.934 5.4413 23.4296 5.93684 23.4296 6.5587C23.4296 7.18057 22.9437 7.6664 22.3219 7.6664ZM8.29109 10.7563C7.4749 10.7563 6.81417 10.0858 6.81417 9.26964C6.81417 8.46316 7.49433 7.783 8.29109 7.783C9.10729 7.783 9.77773 8.45344 9.77773 9.26964C9.77773 10.1053 9.12672 10.7563 8.29109 10.7563ZM17.6676 10.7563C16.8514 10.7563 16.181 10.0858 16.181 9.26964C16.181 8.46316 16.8611 7.783 17.6676 7.783C18.4838 7.783 19.1543 8.45344 19.1543 9.26964C19.1543 10.1053 18.5032 10.7563 17.6676 10.7563ZM12.9842 13.7296C12.032 13.7296 11.2547 12.9522 11.2547 12C11.2547 11.0575 12.0417 10.2704 12.9842 10.2704C13.9364 10.2704 14.7138 11.0478 14.7138 12C14.7138 12.9619 13.9462 13.7296 12.9842 13.7296ZM3.60769 13.1077C2.98583 13.1077 2.5 12.6121 2.5 12C2.5 11.3879 3.00526 10.8923 3.60769 10.8923C4.21984 10.8923 4.71538 11.3781 4.71538 12C4.71538 12.6219 4.22955 13.1077 3.60769 13.1077ZM22.3219 13.1077C21.7 13.1077 21.2045 12.6219 21.2045 12C21.2045 11.3976 21.7097 10.8923 22.3219 10.8923C22.934 10.8923 23.4296 11.3781 23.4296 12C23.4296 12.6316 22.9437 13.1077 22.3219 13.1077ZM8.29109 16.2073C7.4749 16.2073 6.81417 15.5466 6.81417 14.7304C6.81417 13.9239 7.48462 13.2437 8.29109 13.2437C9.10729 13.2437 9.77773 13.9045 9.77773 14.7304C9.77773 15.5563 9.12672 16.2073 8.29109 16.2073ZM17.6676 16.2073C16.8514 16.2073 16.181 15.5466 16.181 14.7304C16.181 13.9239 16.8611 13.2437 17.6676 13.2437C18.4838 13.2437 19.1543 13.9045 19.1543 14.7304C19.1543 15.5563 18.4935 16.2073 17.6676 16.2073ZM12.9842 18.9279C12.168 18.9279 11.4976 18.2575 11.4976 17.4413C11.4976 16.6348 12.1777 15.9644 12.9842 15.9644C13.8004 15.9644 14.4611 16.6251 14.4611 17.4413C14.4611 18.2672 13.8101 18.9279 12.9842 18.9279ZM3.60769 18.549C2.98583 18.549 2.5 18.0632 2.5 17.4413C2.5 16.8389 3.00526 16.3336 3.60769 16.3336C4.22955 16.3336 4.71538 16.8194 4.71538 17.4413C4.71538 18.0729 4.23927 18.549 3.60769 18.549ZM22.3219 18.549C21.7 18.549 21.2045 18.0632 21.2045 17.4413C21.2045 16.8389 21.7097 16.3336 22.3219 16.3336C22.934 16.3336 23.4296 16.8291 23.4296 17.4413C23.4296 18.0729 22.9534 18.549 22.3219 18.549ZM8.29109 21.2988C7.67895 21.2988 7.1834 20.8032 7.1834 20.1814C7.1834 19.5789 7.68866 19.0737 8.29109 19.0737C8.91296 19.0737 9.4085 19.5595 9.4085 20.1814C9.4085 20.813 8.92267 21.2988 8.29109 21.2988ZM17.6676 21.2988C17.0457 21.2988 16.5599 20.8032 16.5599 20.1814C16.5599 19.5789 17.0652 19.0737 17.6676 19.0737C18.2895 19.0737 18.7753 19.5595 18.7753 20.1814C18.7753 20.813 18.2992 21.2988 17.6676 21.2988ZM12.9842 24C12.3623 24 11.8668 23.5045 11.8668 22.8826C11.8668 22.2802 12.3721 21.7749 12.9842 21.7749C13.5964 21.7749 14.0919 22.2704 14.0919 22.8826C14.0919 23.5142 13.6061 24 12.9842 24Z" fill="white"/>
</g>
</svg>
