<svg width="33" height="32" viewBox="0 0 33 32" fill="none" xmlns="http://www.w3.org/2000/svg">
<g id="Icon">
<g id="Vector">
<path d="M20.4337 27.5839C22.4174 26.0476 23.7298 23.7116 23.9536 21.1842C24.0173 20.5442 25.0084 20.5443 24.9446 21.1842C24.7209 23.9352 23.3448 26.5914 21.1374 28.2876C20.9462 28.4476 20.6575 28.5113 20.4337 28.2876C20.2412 28.1276 20.21 27.7439 20.4337 27.5839Z" fill="white"/>
<path fill-rule="evenodd" clip-rule="evenodd" d="M7.47431 27.1676C9.45789 30.1438 12.8177 32 16.2739 32C19.8249 31.9997 23.0884 30.2722 25.0071 27.3586C26.287 25.4387 26.8958 23.23 26.7995 20.8626C26.7358 19.199 26.3845 17.4716 25.7121 15.7755C23.6648 10.3994 20.6886 4.99228 17.3288 0.512486C17.0725 0.192491 16.7213 0 16.3051 0C15.8888 0 15.5051 0.159993 15.2489 0.512486C15.1526 0.639985 15.0889 0.736231 15.0251 0.832472C14.9845 0.913693 14.9307 0.98223 14.8805 1.04616C14.8519 1.08259 14.8245 1.11753 14.8014 1.15246C10.7053 6.97587 7.82555 12.4793 6.25812 17.5354C5.17067 21.0552 5.5869 24.384 7.47431 27.1676ZM16.0177 1.08878C16.1127 0.961289 16.2414 0.92879 16.3052 0.92879C16.3689 0.92879 16.4975 0.961499 16.5937 1.0265C19.8899 5.44261 22.8335 10.786 24.8497 16.0658C25.4572 17.6982 25.8096 19.2982 25.8734 20.8656C25.9684 23.0418 25.4247 25.058 24.241 26.818C22.481 29.474 19.5064 31.0414 16.274 31.0414C13.1378 31.0414 10.0654 29.3452 8.2417 26.6253C6.51428 24.0654 6.13055 21.0256 7.15425 17.7931C8.68918 12.8644 11.5054 7.4246 15.5702 1.6975C15.6664 1.57001 15.7302 1.47376 15.7939 1.37752C15.8577 1.28127 15.9214 1.18503 16.0177 1.08878Z" fill="white"/>
</g>
</g>
</svg>
