<svg width="89" height="89" viewBox="0 0 89 89" fill="none" xmlns="http://www.w3.org/2000/svg">
<g id="Group">
<path id="Union" fill-rule="evenodd" clip-rule="evenodd" d="M4.34257 3.9397C4.1014 3.84926 3.8659 4.08477 3.95633 4.32594L7.78336 14.5314C7.84783 14.7033 8.09048 14.7047 8.15703 14.5336L9.65166 10.6903L23.2043 24.2429L24.6185 22.8287L11.2238 9.43401L14.5502 8.1404C14.7214 8.07385 14.7199 7.8312 14.548 7.76673L4.34257 3.9397Z" fill="white"/>
<path id="Union_2" fill-rule="evenodd" clip-rule="evenodd" d="M65.7969 64.5045L64.3827 65.9187L78.5866 80.1226C77.3407 81.6927 77.4435 83.9822 78.895 85.4336C80.4571 86.9957 82.9897 86.9957 84.5518 85.4336C86.1139 83.8715 86.1139 81.3389 84.5518 79.7768C83.3749 78.5999 81.6472 78.3097 80.1986 78.9061L65.7969 64.5045ZM80.3092 84.0194C79.5281 83.2384 79.5281 81.972 80.3092 81.191C81.0902 80.41 82.3566 80.41 83.1376 81.191C83.9187 81.972 83.9187 83.2384 83.1376 84.0194C82.3566 84.8005 81.0902 84.8005 80.3092 84.0194Z" fill="white"/>
</g>
</svg>
