<svg width="45" height="44" fill="none" xmlns="http://www.w3.org/2000/svg">
    <path d="M15.73 22a6.77 6.77 0 1 1 13.54 0 6.77 6.77 0 0 1-13.54 0Z" fill="#fff" />
    <path fill-rule="evenodd" clip-rule="evenodd"
        d="M21.376.83a1.562 1.562 0 0 1 2.247 0l5.36 5.545h7.58c.862 0 1.562.7 1.562 1.563v7.58l5.545 5.358a1.562 1.562 0 0 1 0 2.247l-5.545 5.36v7.58c0 .862-.7 1.562-1.563 1.562h-7.58l-5.359 5.545a1.562 1.562 0 0 1-2.247 0l-5.359-5.545h-7.58c-.863 0-1.562-.7-1.562-1.563v-7.58L1.33 23.125a1.562 1.562 0 0 1 0-2.247l5.545-5.36v-7.58c0-.862.7-1.562 1.562-1.562h7.58L21.377.83ZM22.5 12.104c-5.465 0-9.896 4.43-9.896 9.896 0 5.465 4.43 9.896 9.896 9.896 5.465 0 9.896-4.43 9.896-9.896 0-5.465-4.43-9.896-9.896-9.896Z"
        fill="#fff" />
</svg>