<svg width="24" height="24" viewBox="0 0 24 24" fill="none" xmlns="http://www.w3.org/2000/svg">
<g id="Icon">
<path id="Vector" fill-rule="evenodd" clip-rule="evenodd" d="M12 10.8571C9.15968 10.8571 6.85714 13.1597 6.85714 16C6.85714 16.3156 7.11298 16.5714 7.42857 16.5714C7.74416 16.5714 8 16.3156 8 16C8 13.7909 9.79086 12 12 12C14.2091 12 16 13.7909 16 16C16 16.3156 16.2558 16.5714 16.5714 16.5714C16.887 16.5714 17.1429 16.3156 17.1429 16C17.1429 13.1597 14.8403 10.8571 12 10.8571ZM12.5714 4.57143C12.5714 4.25584 12.3156 4 12 4C11.6844 4 11.4286 4.25584 11.4286 4.57143V8C11.4286 8.31559 11.6844 8.57143 12 8.57143C12.3156 8.57143 12.5714 8.31559 12.5714 8V4.57143ZM20.4853 8.32284C20.7084 8.09968 20.7084 7.73787 20.4853 7.51472C20.2621 7.29156 19.9003 7.29156 19.6772 7.51472L17.2528 9.93908C17.0296 10.1622 17.0296 10.524 17.2528 10.7472C17.4759 10.9704 17.8378 10.9704 18.0609 10.7472L20.4853 8.32284ZM23.4286 16.5714C23.7442 16.5714 24 16.3156 24 16C24 15.6844 23.7442 15.4286 23.4286 15.4286H20C19.6844 15.4286 19.4286 15.6844 19.4286 16C19.4286 16.3156 19.6844 16.5714 20 16.5714H23.4286ZM0.571429 15.4286C0.255838 15.4286 0 15.6844 0 16C0 16.3156 0.255838 16.5714 0.571429 16.5714H4C4.31559 16.5714 4.57143 16.3156 4.57143 16C4.57143 15.6844 4.31559 15.4286 4 15.4286H0.571429ZM4.32284 7.51472C4.09968 7.29156 3.73787 7.29156 3.51472 7.51472C3.29156 7.73787 3.29156 8.09968 3.51472 8.32284L5.93909 10.7472C6.16224 10.9704 6.52405 10.9704 6.74721 10.7472C6.97037 10.524 6.97037 10.1622 6.74721 9.93908L4.32284 7.51472ZM9.71429 20C9.90535 20 10.0838 19.9045 10.1897 19.7455L11.9988 17.0283L13.8103 19.7455C13.9162 19.9045 14.0947 20 14.2857 20H23.4286C23.7442 20 24 19.7442 24 19.4286C24 19.113 23.7442 18.8571 23.4286 18.8571H14.5943L12.4755 15.683C12.2493 15.3438 11.7507 15.3438 11.5245 15.683L9.40571 18.8571H0.571429C0.255838 18.8571 0 19.113 0 19.4286C0 19.7442 0.255838 20 0.571429 20H9.71429Z" fill="white"/>
</g>
</svg>
