<svg width="24" height="24" viewBox="0 0 24 24" fill="none" xmlns="http://www.w3.org/2000/svg">
<g id="Icon">
<path id="Vector" fill-rule="evenodd" clip-rule="evenodd" d="M12 8.85714C9.15968 8.85714 6.85714 11.1597 6.85714 14C6.85714 14.3156 7.11298 14.5714 7.42857 14.5714C7.74416 14.5714 8 14.3156 8 14C8 11.7909 9.79086 10 12 10C14.2091 10 16 11.7909 16 14C16 14.3156 16.2558 14.5714 16.5714 14.5714C16.887 14.5714 17.1429 14.3156 17.1429 14C17.1429 11.1597 14.8403 8.85714 12 8.85714ZM12.5714 2.57143C12.5714 2.25584 12.3156 2 12 2C11.6844 2 11.4286 2.25584 11.4286 2.57143V6C11.4286 6.31559 11.6844 6.57143 12 6.57143C12.3156 6.57143 12.5714 6.31559 12.5714 6V2.57143ZM20.4853 6.32284C20.7084 6.09968 20.7084 5.73787 20.4853 5.51472C20.2621 5.29156 19.9003 5.29156 19.6772 5.51472L17.2528 7.93908C17.0296 8.16224 17.0296 8.52405 17.2528 8.74721C17.4759 8.97036 17.8378 8.97036 18.0609 8.74721L20.4853 6.32284ZM23.4286 14.5714C23.7442 14.5714 24 14.3156 24 14C24 13.6844 23.7442 13.4286 23.4286 13.4286H20C19.6844 13.4286 19.4286 13.6844 19.4286 14C19.4286 14.3156 19.6844 14.5714 20 14.5714H23.4286ZM0.571429 13.4286C0.255838 13.4286 0 13.6844 0 14C0 14.3156 0.255838 14.5714 0.571429 14.5714H4C4.31559 14.5714 4.57143 14.3156 4.57143 14C4.57143 13.6844 4.31559 13.4286 4 13.4286H0.571429ZM4.32284 5.51472C4.09968 5.29156 3.73787 5.29156 3.51472 5.51472C3.29156 5.73787 3.29156 6.09968 3.51472 6.32284L5.93909 8.74721C6.16224 8.97036 6.52405 8.97036 6.74721 8.74721C6.97037 8.52405 6.97037 8.16224 6.74721 7.93908L4.32284 5.51472ZM9.71429 16.8571C9.90535 16.8571 10.0838 16.9526 10.1897 17.1116L11.9988 19.8288L13.8103 17.1116C13.9162 16.9526 14.0947 16.8571 14.2857 16.8571H23.4286C23.7442 16.8571 24 17.113 24 17.4286C24 17.7442 23.7442 18 23.4286 18H14.5943L12.4755 21.1741C12.2493 21.5134 11.7507 21.5134 11.5245 21.1741L9.40571 18H0.571429C0.255838 18 0 17.7442 0 17.4286C0 17.113 0.255838 16.8571 0.571429 16.8571H9.71429Z" fill="white"/>
</g>
</svg>
