<svg width="25" height="24" viewBox="0 0 25 24" fill="none" xmlns="http://www.w3.org/2000/svg">
<g id="Icon">
<path id="Vector" fill-rule="evenodd" clip-rule="evenodd" d="M12.5 16.32C14.8859 16.32 16.82 14.3859 16.82 12C16.82 9.61413 14.8859 7.68 12.5 7.68C10.1141 7.68 8.18 9.61413 8.18 12C8.18 14.3859 10.1141 16.32 12.5 16.32ZM12.5 15.36C14.3557 15.36 15.86 13.8557 15.86 12C15.86 10.1443 14.3557 8.64 12.5 8.64C10.6443 8.64 9.14 10.1443 9.14 12C9.14 13.8557 10.6443 15.36 12.5 15.36ZM12.98 0.48C12.98 0.214903 12.7651 0 12.5 0C12.2349 0 12.02 0.214903 12.02 0.48V5.28C12.02 5.5451 12.2349 5.76 12.5 5.76C12.7651 5.76 12.98 5.5451 12.98 5.28V0.48ZM20.9853 4.19354C21.1727 4.00609 21.1727 3.70217 20.9853 3.51472C20.7978 3.32727 20.4939 3.32727 20.3065 3.51472L16.9123 6.90883C16.7249 7.09628 16.7249 7.4002 16.9123 7.58765C17.0998 7.7751 17.4037 7.7751 17.5912 7.58765L20.9853 4.19354ZM24.02 12.48C24.2851 12.48 24.5 12.2651 24.5 12C24.5 11.7349 24.2851 11.52 24.02 11.52H19.22C18.9549 11.52 18.74 11.7349 18.74 12C18.74 12.2651 18.9549 12.48 19.22 12.48H24.02ZM20.3065 20.4853C20.4939 20.6727 20.7978 20.6727 20.9853 20.4853C21.1727 20.2978 21.1727 19.9939 20.9853 19.8065L17.5912 16.4123C17.4037 16.2249 17.0998 16.2249 16.9123 16.4123C16.7249 16.5998 16.7249 16.9037 16.9123 17.0912L20.3065 20.4853ZM12.02 23.52C12.02 23.7851 12.2349 24 12.5 24C12.7651 24 12.98 23.7851 12.98 23.52V18.72C12.98 18.4549 12.7651 18.24 12.5 18.24C12.2349 18.24 12.02 18.4549 12.02 18.72V23.52ZM4.01472 19.8065C3.82727 19.9939 3.82727 20.2978 4.01472 20.4853C4.20217 20.6727 4.50609 20.6727 4.69354 20.4853L8.08765 17.0912C8.2751 16.9037 8.2751 16.5998 8.08765 16.4123C7.9002 16.2249 7.59628 16.2249 7.40883 16.4123L4.01472 19.8065ZM0.98 11.52C0.714903 11.52 0.5 11.7349 0.5 12C0.5 12.2651 0.714903 12.48 0.98 12.48H5.78C6.0451 12.48 6.26 12.2651 6.26 12C6.26 11.7349 6.0451 11.52 5.78 11.52H0.98ZM4.69354 3.51472C4.50609 3.32727 4.20217 3.32727 4.01472 3.51472C3.82727 3.70217 3.82727 4.00609 4.01472 4.19354L7.40883 7.58765C7.59628 7.7751 7.9002 7.7751 8.08765 7.58765C8.2751 7.4002 8.2751 7.09628 8.08765 6.90883L4.69354 3.51472Z" fill="white"/>
</g>
</svg>
