<svg width="114" height="114" viewBox="0 0 114 114" fill="none" xmlns="http://www.w3.org/2000/svg">
<g id="Union" opacity="0.3">
<path d="M56.6718 0.0103967L56.7822 6.31337L57.334 6.30371L57.2236 0.000732422L56.6718 0.0103967Z" fill="white"/>
<path d="M53.6863 0.107755L54.1279 6.39418L54.6784 6.3555L54.2369 0.0690846L53.6863 0.107755Z" fill="white"/>
<path d="M51.4795 6.61248L50.7124 0.353653L51.2602 0.286504L52.0274 6.54533L51.4795 6.61248Z" fill="white"/>
<path d="M47.757 0.765589L48.8554 6.96922L49.3988 6.873L48.3005 0.669369L47.757 0.765589Z" fill="white"/>
<path d="M46.2467 7.46356L44.8282 1.32616L45.366 1.20188L46.7844 7.33928L46.2467 7.46356Z" fill="white"/>
<path d="M41.9295 2.03555L43.6681 8.09568L44.1986 7.94348L42.46 1.88335L41.9295 2.03555Z" fill="white"/>
<path d="M41.1274 8.85984L39.0742 2.89906L39.5961 2.71931L41.6492 8.6801L41.1274 8.85984Z" fill="white"/>
<path d="M36.2704 3.91141L38.6271 9.75629L39.139 9.54989L36.7823 3.70501L36.2704 3.91141Z" fill="white"/>
<path d="M36.1825 10.7855L33.5167 5.07304L34.0169 4.83964L36.6827 10.5521L36.1825 10.7855Z" fill="white"/>
<path d="M30.8296 6.37201L33.7935 11.9354L34.2806 11.6759L31.3167 6.11251L30.8296 6.37201Z" fill="white"/>
<path d="M31.4657 13.2117L28.2204 7.80836L28.6936 7.52418L31.9389 12.9275L31.4657 13.2117Z" fill="white"/>
<path d="M25.6839 9.3825L29.2052 14.6092L29.6629 14.3008L26.1417 9.07412L25.6839 9.3825Z" fill="white"/>
<path d="M27.028 16.1222L23.2363 11.0887L23.6772 10.7566L27.4689 15.7901L27.028 16.1222Z" fill="white"/>
<path d="M20.8775 12.9214L24.9286 17.7452L25.3513 17.3902L21.3001 12.5664L20.8775 12.9214Z" fill="white"/>
<path d="M22.9185 19.478L18.619 14.8694L19.0225 14.4929L23.322 19.1015L22.9185 19.478Z" fill="white"/>
<path d="M16.4656 16.9385L21.0024 21.3152L21.3856 20.918L16.8488 16.5413L16.4656 16.9385Z" fill="white"/>
<path d="M19.1862 23.2456L14.4286 19.1117L14.7906 18.6951L19.5482 22.829L19.1862 23.2456Z" fill="white"/>
<path d="M12.5017 21.3948L17.469 25.2749L17.8088 24.8399L12.8415 20.9599L12.5017 21.3948Z" fill="white"/>
<path d="M15.8642 27.3864L10.6982 23.7713L11.0146 23.3191L16.1806 26.9342L15.8642 27.3864Z" fill="white"/>
<path d="M9.02103 26.2408L14.3692 29.5799L14.6615 29.1118L9.31334 25.7726L9.02103 26.2408Z" fill="white"/>
<path d="M12.9909 31.85L7.4772 28.7923L7.74487 28.3097L13.2586 31.3673L12.9909 31.85Z" fill="white"/>
<path d="M6.07124 31.4206L11.734 34.1857L11.9762 33.6898L6.31342 30.9246L6.07124 31.4206Z" fill="white"/>
<path d="M10.6048 36.5871L4.80405 34.12L5.02007 33.6121L10.8208 36.0792L10.6048 36.5871Z" fill="white"/>
<path d="M3.67524 36.885L9.59739 39.043L9.78636 38.5245L3.86421 36.3665L3.67524 36.885Z" fill="white"/>
<path d="M8.72213 41.5478L2.69511 39.7044L2.85654 39.1766L8.88356 41.02L8.72213 41.5478Z" fill="white"/>
<path d="M1.8649 42.5673L7.98023 44.0961L8.11409 43.5607L1.99876 42.0318L1.8649 42.5673Z" fill="white"/>
<path d="M7.37067 46.6768L1.1836 45.4736L1.28896 44.9318L7.47603 46.135L7.37067 46.6768Z" fill="white"/>
<path d="M0.657088 48.4121L6.89935 49.2897L6.97619 48.7431L0.733924 47.8656L0.657088 48.4121Z" fill="white"/>
<path d="M6.56553 51.9241L0.284631 51.3722L0.332944 50.8224L6.61384 51.3743L6.56553 51.9241Z" fill="white"/>
<path d="M0.0730445 54.3478L6.3705 54.5685L6.38984 54.0169L0.0923815 53.7962L0.0730445 54.3478Z" fill="white"/>
<path d="M6.31313 57.2236L0.0101526 57.334L0.000488281 56.7821L6.30347 56.6718L6.31313 57.2236Z" fill="white"/>
<path d="M0.107419 60.3136L6.39384 59.872L6.35517 59.3215L0.0687491 59.763L0.107419 60.3136Z" fill="white"/>
<path d="M6.61266 62.5199L0.353837 63.2871L0.286687 62.7392L6.54551 61.9721L6.61266 62.5199Z" fill="white"/>
<path d="M0.76511 66.2433L6.96874 65.1505L6.87299 64.6069L0.669359 65.6997L0.76511 66.2433Z" fill="white"/>
<path d="M7.46318 67.7583L1.32578 69.1712L1.20195 68.6334L7.33935 67.2204L7.46318 67.7583Z" fill="white"/>
<path d="M2.03503 72.0706L8.09516 70.332L7.94296 69.8015L1.88283 71.5401L2.03503 72.0706Z" fill="white"/>
<path d="M8.85993 72.8722L2.89915 74.9254L2.7194 74.4035L8.68019 72.3504L8.85993 72.8722Z" fill="white"/>
<path d="M3.9117 77.7349L9.75659 75.3727L9.54977 74.8609L3.70489 77.2232L3.9117 77.7349Z" fill="white"/>
<path d="M10.7856 77.8175L5.07319 80.4833L4.83979 79.9831L10.5522 77.3173L10.7856 77.8175Z" fill="white"/>
<path d="M6.37219 83.1703L11.9356 80.212L11.6765 79.7247L6.11306 82.683L6.37219 83.1703Z" fill="white"/>
<path d="M13.2118 82.5338L7.80847 85.7846L7.52394 85.3117L12.9273 82.0609L13.2118 82.5338Z" fill="white"/>
<path d="M9.38266 88.3159L14.6094 84.7946L14.301 84.3369L9.07428 87.8582L9.38266 88.3159Z" fill="white"/>
<path d="M16.1221 86.9718L11.0885 90.769L10.7561 90.3284L15.7897 86.5312L16.1221 86.9718Z" fill="white"/>
<path d="M12.9216 93.1224L17.7454 89.0713L17.3904 88.6486L12.5666 92.6997L12.9216 93.1224Z" fill="white"/>
<path d="M19.4784 91.0816L14.8698 95.3811L14.4933 94.9775L19.1019 90.678L19.4784 91.0816Z" fill="white"/>
<path d="M16.9385 97.5346L21.3153 92.9978L20.9181 92.6146L16.5413 97.1514L16.9385 97.5346Z" fill="white"/>
<path d="M23.2453 94.8195L19.1113 99.5771L18.6947 99.2151L22.8286 94.4575L23.2453 94.8195Z" fill="white"/>
<path d="M21.3949 101.498L25.2749 96.5304L24.84 96.1907L20.96 101.158L21.3949 101.498Z" fill="white"/>
<path d="M27.386 98.1416L23.7709 103.302L23.3188 102.985L26.934 97.825L27.386 98.1416Z" fill="white"/>
<path d="M26.2404 104.979L29.5795 99.6305L29.1114 99.3382L25.7722 104.686L26.2404 104.979Z" fill="white"/>
<path d="M31.8502 101.009L28.7926 106.523L28.3099 106.255L31.3675 100.741L31.8502 101.009Z" fill="white"/>
<path d="M31.4208 107.929L34.1859 102.266L33.69 102.024L30.9248 107.686L31.4208 107.929Z" fill="white"/>
<path d="M36.587 103.395L34.1199 109.201L33.6119 108.985L36.079 103.179L36.587 103.395Z" fill="white"/>
<path d="M36.8847 110.325L39.0427 104.403L38.5242 104.214L36.3662 110.136L36.8847 110.325Z" fill="white"/>
<path d="M41.5479 105.278L39.7045 111.305L39.1767 111.143L41.0202 105.116L41.5479 105.278Z" fill="white"/>
<path d="M42.567 112.135L44.0958 106.02L43.5604 105.886L42.0315 112.001L42.567 112.135Z" fill="white"/>
<path d="M46.6767 106.629L45.4735 112.816L44.9317 112.711L46.1349 106.524L46.6767 106.629Z" fill="white"/>
<path d="M48.4124 113.343L49.2899 107.101L48.7434 107.024L47.8658 113.266L48.4124 113.343Z" fill="white"/>
<path d="M51.9239 107.434L51.372 113.715L50.8222 113.667L51.3741 107.386L51.9239 107.434Z" fill="white"/>
<path d="M54.3483 113.932L54.569 107.629L54.0174 107.61L53.7967 113.913L54.3483 113.932Z" fill="white"/>
<path d="M57.2236 107.692L57.334 113.99L56.7822 113.999L56.6718 107.702L57.2236 107.692Z" fill="white"/>
<path d="M60.3132 113.898L59.8717 107.611L59.3211 107.65L59.7626 113.937L60.3132 113.898Z" fill="white"/>
<path d="M62.52 107.387L63.2871 113.646L62.7393 113.713L61.9721 107.455L62.52 107.387Z" fill="white"/>
<path d="M66.2432 113.24L65.1504 107.031L64.6068 107.127L65.6996 113.336L66.2432 113.24Z" fill="white"/>
<path d="M67.7584 106.537L69.1713 112.68L68.6334 112.804L67.2205 106.661L67.7584 106.537Z" fill="white"/>
<path d="M72.0712 111.965L70.3326 105.904L69.8021 106.057L71.5406 112.117L72.0712 111.965Z" fill="white"/>
<path d="M72.8719 105.14L74.9251 111.101L74.4033 111.281L72.3501 105.32L72.8719 105.14Z" fill="white"/>
<path d="M77.735 110.088L75.3727 104.244L74.861 104.45L77.2233 110.295L77.735 110.088Z" fill="white"/>
<path d="M77.8176 103.22L80.4834 108.933L79.9833 109.166L77.3175 103.454L77.8176 103.22Z" fill="white"/>
<path d="M83.1704 107.628L80.2121 102.065L79.7248 102.324L82.6831 107.887L83.1704 107.628Z" fill="white"/>
<path d="M82.534 100.788L85.7849 106.192L85.3119 106.476L82.0611 101.073L82.534 100.788Z" fill="white"/>
<path d="M88.316 104.618L84.7947 99.3909L84.337 99.6993L87.8583 104.926L88.316 104.618Z" fill="white"/>
<path d="M86.972 97.8777L90.7692 102.911L90.3286 103.244L86.5313 98.2101L86.972 97.8777Z" fill="white"/>
<path d="M93.1221 101.084L89.071 96.2548L88.6481 96.6096L92.6993 101.439L93.1221 101.084Z" fill="white"/>
<path d="M91.0814 94.5219L95.3809 99.1305L94.9773 99.507L90.6778 94.8984L91.0814 94.5219Z" fill="white"/>
<path d="M97.5342 97.0672L92.9973 92.6849L92.6139 93.0819L97.1507 97.4641L97.5342 97.0672Z" fill="white"/>
<path d="M94.8191 90.7544L99.5767 94.8883L99.2147 95.3049L94.4571 91.171L94.8191 90.7544Z" fill="white"/>
<path d="M101.497 92.6108L96.5302 88.7307L96.1904 89.1657L101.158 93.0457L101.497 92.6108Z" fill="white"/>
<path d="M98.1407 86.6137L103.301 90.2288L102.985 90.6809L97.824 87.0658L98.1407 86.6137Z" fill="white"/>
<path d="M104.979 87.7649L99.6306 84.4202L99.338 84.8882L104.686 88.2328L104.979 87.7649Z" fill="white"/>
<path d="M101.009 82.1554L106.522 85.2076L106.255 85.6904L100.741 82.6383L101.009 82.1554Z" fill="white"/>
<path d="M107.928 82.5793L102.266 79.8142L102.023 80.3102L107.686 83.0753L107.928 82.5793Z" fill="white"/>
<path d="M103.395 77.4182L109.201 79.8798L108.986 80.388L103.18 77.9264L103.395 77.4182Z" fill="white"/>
<path d="M110.324 77.115L104.402 74.9625L104.214 75.4812L110.136 77.6337L110.324 77.115Z" fill="white"/>
<path d="M105.277 72.4521L111.304 74.2955L111.143 74.8233L105.116 72.9799L105.277 72.4521Z" fill="white"/>
<path d="M112.136 71.4328L106.02 69.904L105.886 70.4394L112.002 71.9683L112.136 71.4328Z" fill="white"/>
<path d="M106.63 67.3233L112.817 68.5265L112.711 69.0682L106.524 67.865L106.63 67.3233Z" fill="white"/>
<path d="M113.343 65.5879L107.101 64.7103L107.024 65.2569L113.266 66.1345L113.343 65.5879Z" fill="white"/>
<path d="M107.434 62.0815L113.715 62.6279L113.667 63.1778L107.386 62.6314L107.434 62.0815Z" fill="white"/>
<path d="M113.932 59.6522L107.629 59.4314L107.61 59.983L113.913 60.2038L113.932 59.6522Z" fill="white"/>
<path d="M107.692 56.7821L113.99 56.6718L113.999 57.2236L107.702 57.334L107.692 56.7821Z" fill="white"/>
<path d="M113.897 53.6864L107.611 54.1279L107.649 54.6785L113.936 54.2369L113.897 53.6864Z" fill="white"/>
<path d="M107.388 51.4799L113.647 50.7128L113.714 51.2606L107.455 52.0278L107.388 51.4799Z" fill="white"/>
<path d="M113.239 47.7567L107.03 48.8551L107.126 49.3986L113.336 48.3002L113.239 47.7567Z" fill="white"/>
<path d="M106.537 46.2473L112.68 44.8289L112.804 45.3666L106.661 46.7851L106.537 46.2473Z" fill="white"/>
<path d="M111.964 41.9293L105.904 43.6679L106.057 44.1984L112.117 42.4599L111.964 41.9293Z" fill="white"/>
<path d="M105.14 41.128L111.101 39.0749L111.281 39.5967L105.32 41.6499L105.14 41.128Z" fill="white"/>
<path d="M110.088 36.2704L104.243 38.6271L104.45 39.139L110.294 36.7823L110.088 36.2704Z" fill="white"/>
<path d="M103.22 36.1825L108.933 33.5167L109.166 34.0169L103.454 36.6827L103.22 36.1825Z" fill="white"/>
<path d="M107.628 30.8298L102.065 33.7937L102.324 34.2808L107.887 31.3169L107.628 30.8298Z" fill="white"/>
<path d="M100.788 31.466L106.191 28.2207L106.476 28.6939L101.072 31.9392L100.788 31.466Z" fill="white"/>
<path d="M104.618 25.684L99.3909 29.2053L99.6993 29.663L104.926 26.1417L104.618 25.684Z" fill="white"/>
<path d="M97.8781 27.028L102.912 23.2363L103.244 23.6772L98.2102 27.4689L97.8781 27.028Z" fill="white"/>
<path d="M101.084 20.8776L96.255 24.9288L96.6097 25.3516L101.439 21.3005L101.084 20.8776Z" fill="white"/>
<path d="M94.5219 22.9185L99.1305 18.619L99.507 19.0225L94.8984 23.322L94.5219 22.9185Z" fill="white"/>
<path d="M97.0673 16.4654L92.685 21.0022L93.082 21.3857L97.4643 16.8488L97.0673 16.4654Z" fill="white"/>
<path d="M90.7545 19.1861L94.8884 14.4285L95.3051 14.7905L91.1712 19.5481L90.7545 19.1861Z" fill="white"/>
<path d="M92.6107 12.5023L88.7307 17.4696L89.1657 17.8094L93.0457 12.8421L92.6107 12.5023Z" fill="white"/>
<path d="M86.6137 15.8643L90.2288 10.6983L90.681 11.0147L87.0659 16.1807L86.6137 15.8643Z" fill="white"/>
<path d="M87.7649 9.02114L84.4203 14.3693L84.8882 14.6619L88.2329 9.31379L87.7649 9.02114Z" fill="white"/>
<path d="M82.155 12.9912L85.2071 7.47744L85.69 7.74474L82.6379 13.2585L82.155 12.9912Z" fill="white"/>
<path d="M82.5794 6.07155L79.8142 11.7343L80.3102 11.9765L83.0753 6.31373L82.5794 6.07155Z" fill="white"/>
<path d="M77.418 10.605L79.8796 4.80432L80.3877 5.01992L77.9261 10.8206L77.418 10.605Z" fill="white"/>
<path d="M77.115 3.67527L74.9625 9.59742L75.4812 9.78596L77.6337 3.86381L77.115 3.67527Z" fill="white"/>
<path d="M72.4526 8.72262L74.296 2.6956L74.8238 2.85703L72.9804 8.88405L72.4526 8.72262Z" fill="white"/>
<path d="M71.4327 1.86493L69.9039 7.98026L70.4393 8.11412L71.9681 1.9988L71.4327 1.86493Z" fill="white"/>
<path d="M67.3235 7.3707L68.5267 1.18363L69.0685 1.28899L67.8653 7.47606L67.3235 7.3707Z" fill="white"/>
<path d="M65.5884 0.657027L64.7108 6.89929L65.2574 6.97613L66.1349 0.733863L65.5884 0.657027Z" fill="white"/>
<path d="M62.0815 6.56611L62.6279 0.285206L63.1777 0.33304L62.6313 6.61394L62.0815 6.56611Z" fill="white"/>
<path d="M59.6522 0.0731055L59.4314 6.37056L59.983 6.3899L60.2038 0.0924425L59.6522 0.0731055Z" fill="white"/>
</g>
</svg>
