<svg width="33" height="32" viewBox="0 0 33 32" fill="none" xmlns="http://www.w3.org/2000/svg">
<g id="Icon">
<path id="Vector" d="M16.7528 3.45775e-08C13.556 -0.000229346 10.4643 1.1408 8.03411 3.21765C5.60395 5.29449 3.99508 8.17069 3.49717 11.3284C2.99926 14.4861 3.64503 17.7178 5.31821 20.4417C6.99139 23.1655 9.58205 25.2026 12.6237 26.186V29.9355H13.656V32H14.6882V29.9355H18.8173V32H19.8495V29.9355H20.8818V26.186C23.9235 25.2026 26.5141 23.1655 28.1873 20.4417C29.8605 17.7178 30.5063 14.4861 30.0084 11.3284C29.5104 8.17069 27.9016 5.29449 25.4714 3.21765C23.0412 1.1408 19.9495 -0.000229346 16.7528 3.45775e-08ZM19.8495 28.9032H13.656V26.474C15.6919 26.9603 17.8136 26.9603 19.8495 26.474V28.9032ZM16.7528 25.8065C14.3028 25.8065 11.9079 25.08 9.87085 23.7188C7.8338 22.3577 6.24611 20.4231 5.30856 18.1597C4.37101 15.8962 4.12571 13.4056 4.60367 11.0027C5.08163 8.59987 6.26138 6.3927 7.99375 4.66033C9.72612 2.92797 11.9333 1.74821 14.3362 1.27025C16.739 0.792289 19.2297 1.03759 21.4931 1.97515C23.7565 2.9127 25.6912 4.50038 27.0523 6.53743C28.4134 8.57448 29.1399 10.9694 29.1399 13.4193C29.1361 16.7035 27.8298 19.852 25.5076 22.1742C23.1854 24.4964 20.0369 25.8027 16.7528 25.8065ZM17.2689 4.12903H16.2366V2.06452H17.2689V4.12903ZM11.6605 5.63153L10.6283 3.84376L11.5224 3.32763L12.5547 5.1154L11.6605 5.63153ZM8.4488 9.22127L6.66103 8.18901L7.17716 7.29486L8.96493 8.32712L8.4488 9.22127ZM7.46244 13.9355H5.39792V12.9032H7.46244V13.9355ZM8.96493 18.5116L7.17716 19.5438L6.66103 18.6497L8.4488 17.6174L8.96493 18.5116ZM25.0567 17.6174L26.8445 18.6497L26.3283 19.5438L24.5406 18.5116L25.0567 17.6174ZM26.0431 12.9032H28.1076V13.9355H26.0431V12.9032ZM24.5406 8.32712L26.3283 7.29486L26.8445 8.18901L25.0567 9.22127L24.5406 8.32712ZM21.845 5.63153L20.9508 5.1154L21.9831 3.32763L22.8773 3.84376L21.845 5.63153ZM8.6197 15.9843L14.9485 14.4023C15.191 14.8381 15.5841 15.1707 16.0541 15.3376C16.5241 15.5045 17.0389 15.4944 17.502 15.3091C17.9651 15.1238 18.3448 14.7761 18.57 14.3311C18.7952 13.886 18.8504 13.3741 18.7254 12.8912C18.6003 12.4084 18.3036 11.9877 17.8907 11.7078C17.4777 11.428 16.977 11.3083 16.4822 11.3711C15.9874 11.4339 15.5324 11.6749 15.2025 12.049C14.8726 12.4231 14.6903 12.9047 14.6899 13.4034L8.3697 14.9834L8.6197 15.9843ZM16.7528 12.3871C16.9569 12.3871 17.1565 12.4476 17.3263 12.5611C17.496 12.6745 17.6283 12.8357 17.7064 13.0243C17.7846 13.2129 17.805 13.4205 17.7652 13.6207C17.7254 13.821 17.627 14.0049 17.4827 14.1493C17.3383 14.2936 17.1544 14.392 16.9541 14.4318C16.7539 14.4716 16.5464 14.4512 16.3577 14.373C16.1691 14.2949 16.0079 14.1626 15.8945 13.9928C15.781 13.8231 15.7205 13.6235 15.7205 13.4194C15.7209 13.1457 15.8297 12.8833 16.0232 12.6898C16.2168 12.4963 16.4791 12.3875 16.7528 12.3871ZM24.1258 20.6371L24.8636 21.3589C23.8075 22.44 22.5459 23.299 21.1531 23.8855C19.7602 24.4721 18.2641 24.7742 16.7528 24.7742C15.2414 24.7742 13.7453 24.4721 12.3525 23.8855C10.9596 23.299 9.69801 22.44 8.64191 21.3589L9.37975 20.6371C10.3397 21.6199 11.4865 22.4009 12.7527 22.9341C14.0189 23.4673 15.3789 23.7419 16.7528 23.7419C18.1266 23.7419 19.4866 23.4673 20.7528 22.9341C22.019 22.4009 23.1658 21.6199 24.1258 20.6371Z" fill="white"/>
</g>
</svg>
