<svg width="32" height="32" viewBox="0 0 32 32" fill="none" xmlns="http://www.w3.org/2000/svg">
<g id="Icon" clip-path="url(#clip0_113_934)">
<g id="Vector">
<path fill-rule="evenodd" clip-rule="evenodd" d="M16.2692 4.41378V20.469C18.1451 20.7448 19.5799 22.3447 19.5799 24.2758C19.5799 26.4277 17.8696 28.138 15.7177 28.138C13.5658 28.138 11.8555 26.4275 11.8555 24.2758C11.8555 22.3449 13.2899 20.7449 15.1658 20.469V4.41378C15.1658 4.08275 15.3865 3.86206 15.7175 3.86206C16.0486 3.86206 16.2692 4.08275 16.2692 4.41378ZM12.9589 24.276C12.9589 25.8208 14.1727 27.0346 15.7175 27.0346C17.2624 27.0346 18.4761 25.8208 18.4761 24.276C18.4761 22.7312 17.2624 21.5174 15.7175 21.5174C14.1727 21.5174 12.9589 22.7312 12.9589 24.276Z" fill="white"/>
<path fill-rule="evenodd" clip-rule="evenodd" d="M19.8557 4.13801V17.7656C22.0625 19.2003 23.442 21.6276 23.442 24.2759C23.442 26.4828 22.504 28.5793 20.9041 30.0138C19.4694 31.2828 17.5935 32 15.7177 32C15.3867 32 15.1108 32 14.8349 31.9448C11.3038 31.5589 8.43488 28.745 8.04866 25.214C7.71745 22.2345 9.09695 19.3656 11.5797 17.7656V4.13801C11.5797 1.87586 13.4555 0 15.7177 0C17.9798 0 19.8557 1.87596 19.8557 4.13801ZM14.9452 30.8416C16.8764 31.0623 18.6971 30.4554 20.1316 29.1864C21.5109 27.9724 22.3384 26.1517 22.3384 24.3311C22.3384 21.9586 21.0694 19.7517 19.0281 18.5931C18.8626 18.4828 18.7522 18.3173 18.7522 18.0966V4.13811C18.7522 2.48291 17.3729 1.10362 15.7177 1.10362C14.0625 1.10362 12.6832 2.48295 12.6832 4.13811V18.0415C12.6832 18.2622 12.5729 18.4277 12.4074 18.5381C10.1453 19.8622 8.82116 22.4003 9.15219 25.0486C9.48305 28.083 11.9107 30.5105 14.9452 30.8416Z" fill="white"/>
</g>
</g>
<defs>
<clipPath id="clip0_113_934">
<rect width="32" height="32" fill="white"/>
</clipPath>
</defs>
</svg>
