<svg width="173" height="32" viewBox="0 0 173 32" fill="none" xmlns="http://www.w3.org/2000/svg">
<path d="M162.025 4.8889H156.914V0.444458H172.025V4.8889H166.914V31.5556H162.025V4.8889Z" fill="#FA9E42"/>
<path d="M148.022 32C145.652 32 143.859 31.3333 142.644 30C141.43 28.637 140.822 26.6963 140.822 24.1778V22.4H145.444V24.5333C145.444 26.5481 146.289 27.5556 147.978 27.5556C148.807 27.5556 149.43 27.3185 149.844 26.8444C150.289 26.3407 150.511 25.5407 150.511 24.4444C150.511 23.1407 150.215 22 149.622 21.0222C149.03 20.0148 147.933 18.8148 146.333 17.4222C144.319 15.6444 142.911 14.0444 142.111 12.6222C141.311 11.1704 140.911 9.54074 140.911 7.73333C140.911 5.27408 141.533 3.37778 142.778 2.04444C144.022 0.681481 145.83 0 148.2 0C150.541 0 152.304 0.681481 153.489 2.04444C154.704 3.37778 155.311 5.3037 155.311 7.82222V9.11111H150.689V7.51111C150.689 6.44445 150.482 5.67407 150.067 5.2C149.652 4.6963 149.044 4.44445 148.244 4.44445C146.615 4.44445 145.8 5.43704 145.8 7.42222C145.8 8.54815 146.096 9.6 146.689 10.5778C147.311 11.5556 148.422 12.7407 150.022 14.1333C152.067 15.9111 153.474 17.5259 154.244 18.9778C155.015 20.4296 155.4 22.1333 155.4 24.0889C155.4 26.637 154.763 28.5926 153.489 29.9556C152.244 31.3185 150.422 32 148.022 32Z" fill="#FA9E42"/>
<path d="M127.736 0.444458H134.358L139.425 31.5556H134.536L133.647 25.3778V25.4667H128.092L127.203 31.5556H122.669L127.736 0.444458ZM133.069 21.2445L130.892 5.86668H130.803L128.669 21.2445H133.069Z" fill="#FA9E42"/>
<path d="M113.833 32C111.493 32 109.7 31.3333 108.456 30C107.241 28.6667 106.633 26.7852 106.633 24.3556V7.64444C106.633 5.21482 107.241 3.33333 108.456 2C109.7 0.666667 111.493 0 113.833 0C116.174 0 117.952 0.666667 119.167 2C120.411 3.33333 121.033 5.21482 121.033 7.64444V10.9333H116.411V7.33333C116.411 5.40741 115.596 4.44445 113.967 4.44445C112.337 4.44445 111.522 5.40741 111.522 7.33333V24.7111C111.522 26.6074 112.337 27.5556 113.967 27.5556C115.596 27.5556 116.411 26.6074 116.411 24.7111V19.9556H121.033V24.3556C121.033 26.7852 120.411 28.6667 119.167 30C117.952 31.3333 116.174 32 113.833 32Z" fill="#FA9E42"/>
<path d="M94.7231 18.3111L88.812 0.444458H94.012L97.3453 11.8667H97.4342L100.768 0.444458H105.523L99.612 18.3111V31.5556H94.7231V18.3111Z" fill="white"/>
<path d="M72.96 0.444458H80.4266C82.8563 0.444458 84.6785 1.09631 85.8933 2.40001C87.1081 3.70372 87.7155 5.61483 87.7155 8.13335V23.8667C87.7155 26.3852 87.1081 28.2963 85.8933 29.6C84.6785 30.9037 82.8563 31.5556 80.4266 31.5556H72.96V0.444458ZM80.3377 27.1111C81.1377 27.1111 81.7451 26.8741 82.16 26.4C82.6044 25.9259 82.8266 25.1556 82.8266 24.0889V7.91113C82.8266 6.84446 82.6044 6.07409 82.16 5.60001C81.7451 5.12594 81.1377 4.8889 80.3377 4.8889H77.8489V27.1111H80.3377Z" fill="white"/>
<path d="M62.2316 32C59.8316 32 57.9945 31.3185 56.7204 29.9556C55.4464 28.5926 54.8093 26.6667 54.8093 24.1778V7.82222C54.8093 5.33333 55.4464 3.40741 56.7204 2.04444C57.9945 0.681481 59.8316 0 62.2316 0C64.6316 0 66.4686 0.681481 67.7427 2.04444C69.0167 3.40741 69.6538 5.33333 69.6538 7.82222V24.1778C69.6538 26.6667 69.0167 28.5926 67.7427 29.9556C66.4686 31.3185 64.6316 32 62.2316 32ZM62.2316 27.5556C63.9204 27.5556 64.7649 26.5333 64.7649 24.4889V7.51111C64.7649 5.46667 63.9204 4.44445 62.2316 4.44445C60.5427 4.44445 59.6982 5.46667 59.6982 7.51111V24.4889C59.6982 26.5333 60.5427 27.5556 62.2316 27.5556Z" fill="white"/>
<path d="M40.0608 0.444458H44.9497V27.1111H52.9941V31.5556H40.0608V0.444458Z" fill="white"/>
<path d="M23.915 0.444458H37.2484V4.8889H28.8039V13.1111H35.515V17.5556H28.8039V27.1111H37.2484V31.5556H23.915V0.444458Z" fill="white"/>
<path d="M0 0.444458H6.97778L10.0889 22.7111H10.1778L13.2889 0.444458H20.2667V31.5556H15.6444V8.00001H15.5556L12 31.5556H7.91111L4.35556 8.00001H4.26667V31.5556H0V0.444458Z" fill="white"/>
</svg>
